<?xml version="1.0" encoding="UTF-8"?>
<!-- Created with Inkscape (http://www.inkscape.org/) -->
<svg width="261.56" height="60.652" version="1.1" viewBox="0 0 261.56 60.652"
    xmlns="http://www.w3.org/2000/svg">
    <g fill="currentColor" id="brush-stroke">
        <path
            d="m3.008 44.857c1.4418 0.47977 4.0905 0.37853 4.8013-0.15205-1.6006-0.0635-3.2022-0.3041-4.8013 0.15205zm61.409-19.664c1.4259 0.81174 4.8835 0.84561 5.9164 9e-3 -1.6905-0.40816-3.2925-0.8509-4.9184-1.1617-0.69603-0.133-1.1077 0.31291-0.99801 1.1532zm-3.2995-1.9593c-0.21096-0.0187-0.39229-0.0603-0.57009-0.0459-2.1452 0.16756-4.2894 0.36336-6.4368 0.508-0.67698 0.0452-1.4182 0.11818-2.0313-0.0998-0.87983-0.31292-1.5558-0.048-2.3784 0.26105 0.83185 0.62971 2.3728 0.78387 5.926 0.70556 1.9886-0.0441 3.9786-0.0511 6.0939-0.0765-0.25435-0.52811-0.42474-0.8823-0.60325-1.2524zm194.54-3.0416c-0.19121 0.0402-0.38171 0.109-0.57468 0.11676-1.8334 0.078-3.6682 0.12383-5.5002 0.23002-0.43392 0.0247-0.99554 0.10936-1.2577 0.39158-0.63359 0.68015-1.3811 0.79163-2.2264 0.8382-1.1564 0.0628-1.3423 0.23248-1.9865 1.4891 1.4471 0.83397 3.0519 0.26106 4.5208 0.55986-0.18133 0.1457-0.39405 0.31609-0.80081 0.64312 0.76059 0.2801 1.3289 0.6357 1.9198 0.67874 1.6341 0.11853 3.278 0.10619 4.9174 0.14746 0.45614 0.0116 0.91863-9e-3 1.367 0.0579 1.1691 0.17604 2.238-0.16192 3.4445-0.50271-0.23848-0.30127-0.39265-0.49635-0.64418-0.81385h2.7224c-0.39864 1.4668-0.50624 1.5614-1.8701 1.6094-1.1412 0.0402-2.2835 0.0596-3.4234 0.1277-0.40534 0.0247-0.84914 0.079-1.1987 0.26494-1.3614 0.72566-2.8081 0.74895-4.2827 0.63959-0.22684-0.0169-0.50412-0.15205-0.66993-0.0653-1.3095 0.68474-2.7164 0.19755-4.0534 0.39511-0.95392 0.14111-1.869 0.54433-2.8014 0.83008 2e-3 0.10725 5e-3 0.2152 8e-3 0.32244 0.49177 0.11077 0.98248 0.22966 1.476 0.33197 1.9064 0.3944 3.7525 1.016 5.776 0.83502 1.9075-0.17074 3.8421-0.037 6.0304-0.037-0.39405 0.21096-0.56373 0.36936-0.74894 0.39017-1.9128 0.2159-3.8262 0.43039-5.7436 0.59549-0.58773 0.0511-1.1889-0.0564-1.7844-0.0811-0.68474-0.0289-1.3808-0.13335-2.0542-0.0543-2.7323 0.32032-5.4564 0.71226-8.1866 1.0453-0.86043 0.10478-1.7346 0.0914-2.6003 0.1644-0.86431 0.0727-1.7392 0.12453-2.5848 0.30197-0.64841 0.13547-1.1617 0.52635-1.0689 1.4916 2.89 0.11148 5.7415-0.14252 8.7951-0.4184-0.70555 0.94086-1.6256 0.95497-2.3961 1.0562-3.9518 0.51647-7.9153 0.94121-11.874 1.4002-0.18133 0.0208-0.37959 0.0148-0.53728 0.0907-0.14782 0.072-0.35948 0.24235-0.35172 0.3563 0.0134 0.1972 0.13088 0.48154 0.28575 0.5528 0.2734 0.12524 0.60748 0.15628 0.91722 0.16017 1.2799 0.0155 2.5601 6e-3 3.9359 6e-3 -0.24588 0.51717-0.44661 0.94015-0.67804 1.4266 1.1211 0.59372 2.2331 0.23389 3.295 0.3048 1.0276 0.0677 2.0638 0.0141 3.1044 0.18662-2.4966 0.65369-5.1534 0.0466-7.595 0.98601-0.13582 0.76517 0.2032 1.0061 0.81774 1.016 1.0104 0.0155 2.0196 0.0557 3.0293 0.0543 2.6631-5e-3 5.3262-0.049 7.9887-0.0272 0.72495 6e-3 1.446 0.20285 2.172 0.29104 0.99907 0.12242 1.9999 0.32138 2.9997 0.31821 3.484-0.0116 6.9674-0.10442 10.451-0.14323 0.53693-6e-3 1.0756 0.10689 1.6171 0.29281-1.7067 0.63253-3.5151 0.38735-5.2599 0.6417-1.7844 0.25894-3.5902 0.36583-5.3873 0.5394-9e-3 0.12241-0.0173 0.24588-0.0265 0.3683 0.31291 0.0638 0.62618 0.18203 0.93909 0.18309 2.2878 6e-3 4.5755-0.0247 6.8636-0.0148 1.1282 5e-3 2.2807-0.1718 3.6251 0.38171-2.8134 0.1905-5.3636 0.36336-8.0236 0.54363 0.15099 1.3018-0.67909 1.6277-1.7293 1.7635-1.59 0.20602-3.1782 0.43497-4.7625 0.68227-0.67769 0.10583-1.3631 0.22754-2.0094 0.44661-0.37818 0.12842-0.68651 0.46285-0.97544 0.86572 1.3127 0.46531 2.6144 0.27587 4.0125 0.29281-0.27728 0.68015-0.81633 0.65299-1.2541 0.69779-1.5067 0.15346-3.0191 0.24518-4.5261 0.39335-0.59019 0.0586-1.18 0.17568-1.7501 0.33443-0.15557 0.0434-0.34642 0.34713-0.32984 0.51188 0.0176 0.16792 0.25259 0.41663 0.42439 0.44591 0.53728 0.0917 1.0894 0.097 1.8881 0.15346-1.6503 0.79022-3.2674 0.64206-4.7629 1.0209-1.4619 0.37006-2.9157 0.77047-4.3596 1.2862 1.0647 0.44838 2.1184 0.20532 3.1934 0.0699 1.1201-0.14041 2.2599-0.12594 3.4593 0.0512-0.19332 0.10195-0.38171 0.28081-0.58067 0.29245-1.5953 0.097-3.2082 0.0504-4.7876 0.25965-4.5022 0.5969-9.048 0.37853-13.557 0.86536-8.5866 0.9271-17.219 1.1356-25.84 1.5039-1.6496 0.0699-3.3038 0.0102-4.9555 0.0413-0.58913 0.0109-1.1765 0.11218-1.7642 0.17568-0.22225 0.024-0.44591 0.0931-0.66534 0.0822-1.2739-0.0642-2.5474-0.20602-3.8213-0.21237-5.1872-0.0254-10.375 2e-3 -15.562-0.0183-2.2405-8e-3 -4.481-0.0843-6.7215-0.12629-0.1838-3e-3 -0.37536-0.01-0.54892 0.0384-2.7538 0.75918-5.5626 0.28928-8.3432 0.33761-7.2531 0.12559-14.508 0.14041-21.763 0.19544-4.9593 0.037-9.919 0.0628-14.878 0.10054-3.2999 0.025-6.5998 0.0713-9.9007 0.0907-6.883 0.0409-13.767 0.0766-20.65 0.1009-3.0759 0.012-6.1524-0.0219-9.2283-2e-3 -0.71579 5e-3 -1.4319 0.14394-2.1491 0.22155-0.17498 0.68756 0.07514 1.0336 0.57538 1.156 0.43991 0.1076 0.90699 0.12171 1.3631 0.13794 3.0279 0.1076 6.0565 0.20214 9.0851 0.30903 0.16192 6e-3 0.32209 0.0811 0.48401 0.39017-1.4598 0.1009-2.9199 0.28505-4.3794 0.28611-3.7613 3e-3 -7.5233-0.0684-11.286-0.12348-2.6589-0.0384-5.3202-0.0409-7.9752-0.16263-4.3963-0.20143-8.7948-0.41522-13.182-0.75706-3.7031-0.28751-7.3893-0.78316-11.086-1.1539-5.66-0.56762-11.324-1.1007-16.984-1.6626-1.0947-0.10795-2.1848-0.27022-3.2734-0.43215-0.29563-0.0441-0.57785-0.17921-0.86642-0.2727-0.0014-0.0938-0.0032-0.18803-0.0046-0.28257 0.50024-0.0349 1.0058-0.13088 1.5014-0.0945 2.1925 0.16192 4.3822 0.3623 6.5733 0.55068 0.09066 8e-3 0.18274 0.0564 0.27023 0.0473 1.3836-0.13652 2.7661-0.27975 4.1137-0.41839-0.65088-0.50941-2.2818-0.79199-5.3142-1.0185-1.9212-0.14358-3.8319-0.41028-5.7492-0.60748-1.8344-0.18839-3.6714-0.35807-5.5069-0.53587-0.0028-0.10654-6e-3 -0.21308-0.0085-0.31927 1.0876-0.0928 2.1756-0.1845 3.4657-0.29421-1.0107-1.2725-2.3791-0.36548-3.5144-0.97332 1.1716-0.48471 2.3961 0.0526 3.4544-0.70273-0.88159-0.5715-1.7568-0.32808-2.5947-0.37853-0.86819-0.0519-1.7385-0.14182-2.5957-0.28646-0.80398-0.13582-1.6722 0.41275-2.4303-0.2734 3.6707-2e-3 7.2965-0.49107 10.954-0.55809 0.01235-0.1143 0.02469-0.22896 0.03704-0.34396-0.20743-0.12242-0.40287-0.32138-0.62406-0.3549-0.98354-0.14781-1.9724-0.27552-2.963-0.35948-2.0024-0.17039-3.968-0.63076-6.0046-0.57503-1.4139 0.0385-2.8339-0.23953-4.2538-0.32596-1.0615-0.0646-1.8867-0.47802-2.5679-1.4817 0.31962-0.13935 0.57362-0.33161 0.84067-0.35172 1.827-0.14076 3.6562-0.24377 5.4846-0.3616 1.3264-0.0857 2.6197-0.15945 3.7518-1.0795 0.43744-0.35595 1.2023-0.36794 1.8284-0.42262 3.6047-0.31151 7.2115-0.60043 10.819-0.87525 2.558-0.19438 5.1181-0.37712 7.6796-0.51717 0.77152-0.042 1.5519 0.1083 2.3287 0.11536 0.86678 8e-3 1.7371-0.0169 2.6014-0.0843 0.52811-0.0406 0.9525-0.28434 0.9973-1.1222-2.1149-0.12629-4.1924-0.25082-6.3338-0.37818 0.65334-0.99095 1.6154-1.3582 2.7143-1.4845 2.2617-0.25929 4.5029-0.72849 6.7998-0.63924 0.37818 0.0145 0.7613-0.091 1.1423-0.14111 0.0056-0.09 0.01164-0.18027 0.01729-0.27023-0.21943-0.084-0.4445-0.25258-0.65828-0.24024-1.4139 0.0836-2.825 0.2092-4.2376 0.31468-2.6515 0.19826-5.3026 0.40323-7.9555 0.58385-1.3705 0.0935-2.7439 0.20567-4.1152 0.19191-1.3716-0.0141-2.746-0.12241-3.9578-0.92851-0.24165-0.16052-0.61595-0.121-0.92816-0.17745-2.6596-0.47942-5.3192-0.95779-7.9763-1.4482-0.11007-0.0201-0.19967-0.15628-0.32526-0.26106 0.4639-0.51788 0.9278-0.18626 1.4034-0.11218 1.6598 0.25788 3.3306 0.64382 4.9879-6e-3 0.35913-0.14111 0.68686-0.3623 1.01-0.70697-3.2604-0.0275-6.4329-0.44556-9.5927-1.2996 0.28399-0.0759 0.56303-0.18803 0.85125-0.21908 0.45614-0.0487 0.92146-0.0102 1.3758-0.0688 0.55527-0.0709 1.318 0.16793 1.5057-0.62723 0.18415-0.77682-0.65617-0.7359-1.034-1.0675-0.02928-0.0254-0.04092-0.0702-0.07973-0.13935 0.26811-0.20355 0.5401-0.41028 1.0051-0.76376-0.65899-0.16475-1.1116-0.27834-1.6958-0.42475 0.14499-0.25117 0.22013-0.57785 0.38312-0.63041 0.65229-0.20814 1.3331-0.32526 2.0013-0.48648 1.4527-0.35137 2.9041-0.70873 4.5247-1.1049-0.57221-0.7232-1.2337-0.83644-1.7223-0.74824-0.81844 0.14816-1.7808-0.11219-2.4486 0.65758-0.07338 0.0836-0.30198 0.0564-0.45508 0.042-0.20849-0.0187-0.45473-0.16969-0.61524-0.1009-2.0165 0.8636-4.0576 0.38347-6.0766 0.0843-0.61948-0.0921-1.1864-0.54257-1.9173-0.89641 1.4626-0.62371 3.9987-1.1342 5.1202-1.0929 0.77611 0.0286 1.4901-0.18274 2.4744-0.66993-1.6379-0.48718-2.9849 0.13124-4.4528-0.0508 0.635-0.87312 1.3536-1.4855 2.3139-1.6358 1.3984-0.21837 1.9861-1.4594 3.0681-2.0578-0.02258-0.10195-0.0448-0.20355-0.06738-0.30551-0.73978-0.0381-1.5102 0.0363-2.2119-0.14781-0.68651-0.17921-1.3032-0.62301-1.9847-0.96838 0.23566-0.66816 0.44521-1.2615 0.66393-1.8817-1.1091-0.53129-1.5057 1.0061-2.5195 0.76976-0.22754-0.33161-0.47837-0.6985-0.7105-1.0368 0.51929-1.9928 2.4828-2.414 3.9585-3.375-0.04022-0.0829-0.08114-0.16545-0.12206-0.24765-0.20073-0.0194-0.40287-0.0642-0.60113-0.0504-0.21978 0.0155-0.43498 0.0857-0.72249 0.1464-0.21061-0.58102-0.40358-1.1151-0.62336-1.7216 0.90593-0.36372 1.7921-0.71403 2.6734-1.0756 0.80821-0.33197 1.8521 0.29139 2.5809-0.62583-0.38312-0.66605-1.0382-0.55139-1.5875-0.61771-0.51435-0.0621-1.0425-0.0134-1.6224-0.23954 1.3677-0.57609 2.7647-1.0918 4.0975-1.7399 2.9464-1.433 6.1807-1.7085 9.3137-2.3544 4.27-0.88053 8.5654-1.6538 12.871-2.3393 4.396-0.69921 8.805-1.3547 13.231-1.8136 4.5572-0.47237 9.1405-0.67769 13.712-1.0146 0.88477-0.06562 1.6771 0.34537 2.6222 0.23918 1.4753-0.16545 3.0007 0.14746 4.506 0.19368 0.81774 0.0254 1.6436-0.0448 2.4585-0.13794 1.7297-0.19897 3.4548-0.44344 5.1827-0.66358 0.22613-0.02857 0.51188-0.12065 0.67663-0.02364 1.3593 0.80045 2.7859 0.22966 4.1811 0.24659 0.52035 0.0056 1.0407 7.05e-4 1.561 7.05e-4 0.01482 0.09243 0.02963 0.18591 0.04375 0.27834-0.52352 0.25012-1.0467 0.50094-1.5706 0.75177 0.01517 0.09208 0.02928 0.18344 0.0441 0.27517 0.60078 0.03775 1.204 0.05715 1.8027 0.11677 0.5902 0.05891 1.1748 0.2159 1.7642 0.23142 1.9681 0.05256 3.9384 0.11218 5.9055 0.07303 2.7005-0.05362 5.3986-0.23178 8.0994-0.28575 1.8662-0.03739 3.7356 0.0441 5.6032 0.07126 0.1838 0.0028 0.3683 0.01164 0.54963-0.0078 4.0626-0.43603 8.1301-0.44168 12.208-0.22684 1.5328 0.08114 3.0776-0.07691 4.6172-0.08925 3.5648-0.02857 7.13-0.03422 10.695-0.04798 0.1838-0.0014 0.37112-0.01552 0.55069 0.01376 5.8328 0.92534 11.723 0.62583 17.588 0.79163 9.3158 0.26317 18.634 0.4385 27.951 0.62865 2.474 0.05045 4.9498 0.02258 7.4242 0.02081 0.98425-7.06e-4 1.1592 0.20002 1.1462 1.168-4e-3 0.26388 0.24448 0.53093 0.40781 0.85725-0.16545 0.01411-0.45437 0.04022-0.74259 0.06491-1.276 0.1083-2.5516 0.21237-3.8262 0.3295-0.17886 0.01693-0.38947 0.04763-0.52211 0.15169-1.2524 0.98178-2.643 0.74648-4.0386 0.48754-0.57432-0.10654-1.8616 0.25647-2.5492 0.59937-0.2787 0.13864-0.72637 0.13582-1.0192 0.012-0.91299-0.38524-1.8313-0.5461-3.054-0.36795-0.12488 0.33055-0.26564 0.70132-0.4579 1.2104 0.68756 0.0977 1.264 0.24165 1.844 0.254 6.4692 0.13547 12.939 0.22507 19.407 0.38735 2.0606 0.0519 4.1144 0.35243 6.175 0.42263 3.2547 0.11006 6.5137 0.09 9.7691 0.18909 1.6464 0.0501 3.2872 0.2801 4.9336 0.35736 3.5299 0.16369 7.0619 0.30233 10.594 0.4124 4.0375 0.127 8.0761 0.2159 12.115 0.31185 0.90523 0.0212 1.8108 3e-3 2.6656 3e-3 0.28822 0.58844 0.14711 0.91828-0.37994 1.0107-0.35737 0.0632-0.73378 0.0145-1.0961 0.061-0.22472 0.03-0.43886 0.14429-0.64488 0.33761 1.4944 0.55386 3.0868 0.0296 4.578 0.36266 2e-3 0.11006 4e-3 0.21978 6e-3 0.32984-0.56621 0.0751-1.1307 0.18168-1.6997 0.22049-1.8672 0.12806-3.7366 0.22789-5.6039 0.35031-0.31821 0.0208-0.65511 0.0455-0.94439 0.16404-1.5748 0.64488-3.2357 0.6798-4.8828 0.61701-3.0304-0.11607-6.0265 0.23636-9.0336 0.47484-1.1419 0.0907-2.2952 0.0226-3.4413 0.0688-0.4191 0.0166-0.83256 0.15346-1.2492 0.23495 0.0691 1.1612 11.975 0.90357 13.33 0.95073 0.59549 0.0208 1.191 0.15029 1.7833 0.13159 0.81845-0.0254 1.4577 0.31468 1.8433 0.96026 0.29351 0.49036 0.63182 0.57256 1.1218 0.56868 0.87066-6e-3 1.7427 0.0194 2.6137 0.054 0.66146 0.0265 1.3667-0.13159 1.8376 0.61277 0.12312 0.19509 0.58949 0.20285 0.90523 0.24236 1.0897 0.13547 2.1886 0.38488 3.2706 0.33197 1.3356-0.0663 2.2867 0.6678 3.2787 1.2848 0.51153 0.31785 0.96414 0.41381 1.5247 0.43427 2.6592 0.0963 5.3171 0.22719 7.9749 0.3496 0.15416 7e-3 0.30727 0.055 0.46073 0.0843 3e-3 0.072 6e-3 0.14464 9e-3 0.21626" />
        <path
            d="m219.34 7.207c0.18203-0.44697 0.2921-0.7172 0.46108-1.1328-1.2301-0.0907-2.3513-0.20849-3.4756-0.25012-2.7912-0.1016-5.5831-0.19474-8.376-0.23389-0.94968-0.0127-1.9029 0.14852-2.854 0.23142-0.0914 8e-3 -0.18133 0.0332-0.27305 0.0402-1.9604 0.14393-3.9557 0.5648-5.8716 0.33443-1.3254-0.15945-2.4821 0.3803-3.7536 0.23178-1.2213-0.14323-2.4733-0.0169-3.7112-0.0342-0.80151-0.0116-1.602-0.0702-2.4236-0.33232 0.24306-0.0889 0.48013-0.22966 0.72954-0.25682 1.2266-0.13547 2.4617-0.20532 3.6837-0.37112 0.635-0.08608 1.4203 0.01764 1.6602-0.9077 0.0367-0.14146 0.46637-0.26846 0.70626-0.25612 2.7446 0.14464 5.486 0.3623 8.2314 0.47308 4.4475 0.17956 8.8964 0.31291 13.346 0.41734 0.73483 0.01729 1.4753-0.21202 2.1996-0.51576-2.0712-0.63641-4.172-0.61877-6.2759-0.68368-2.1078-0.06456-4.2097-0.29669-6.3144-0.45085-2.1297-0.15628-4.2608-0.30727-6.3913-0.46002-6e-3 -0.09278-0.0123-0.18486-0.018-0.27764 0.32173-0.04516 0.64417-0.13264 0.96555-0.12947 3.6685 0.03634 7.3371 0.04692 11.004 0.14499 3.0194 0.08184 6.035 0.31468 9.0551 0.39793 1.5106 0.04233 3.0254-0.09843 4.5381-0.15593 2.6095-0.09913 5.2176-0.23636 7.8274-0.28328 1.9678-0.03563 3.9374 0.03881 5.9058 0.08114 0.44274 0.0095 0.88406 0.09066 1.3257 0.13935 0.013 0.10478 0.0265 0.2092 0.0399 0.31397-0.99342 0.25718-1.9876 0.5147-3.115 0.8061 0.53482 0.58949 1.167 0.51647 1.7029 0.55668 5.3016 0.39264 10.606 0.75283 15.909 1.1292 0.0628 5e-3 0.11995 0.10371 0.272 0.24447-0.26353 0.12947-0.47625 0.27905-0.7112 0.34184-1.9212 0.51224-3.8693 0.55669-5.8381 0.35278-0.80751-0.0836-1.6284-0.11747-2.4384-0.0773-3.4734 0.1711-6.9409 0.47167-10.427 0.33902-2.1985-0.0829-4.4013-0.0889-6.6019-0.0688-1.2764 0.0116-2.5516 0.20144-3.828 0.20673-1.2584 5e-3 -2.5238 0.3616-3.7888-0.17357-0.40675-0.1718-0.98213 0.0497-1.4796 0.0977-0.48472 0.0473-0.96873 0.10372-1.5967 0.1711" />
        <path
            d="m190.9 58.947c-0.19932 0.22084-0.2286 0.28328-0.26106 0.28505-1.8718 0.10759-3.6213 0.78916-5.4388 1.1469-0.71473 0.14075-1.3878 0.0713-1.699-0.78705-1.7276 0.68157-3.46 0.68615-5.1978 0.64699-3.1083-0.0705-6.2163-0.1397-9.3246-0.21166-5.4991-0.12771-10.998-0.30974-16.497-0.36478-3.253-0.0324-6.5077 0.15029-9.7621 0.20356-1.3744 0.0219-2.7513-0.0286-4.1264-0.0755-0.2854-0.01-0.56692-0.14569-0.84138-0.32526 0.98002-0.44697 2.0066-0.42298 3.0212-0.42933 1.0485-6e-3 2.0976 0.0311 3.1461 0.0667 3.2512 0.11147 6.4904-0.15699 9.7338-0.28893 3.0674-0.12524 6.1338-0.26846 9.2008-0.36689 2.4197-0.078 4.8412-0.13688 7.2609-0.12911 1.0375 4e-3 2.0729 0.27622 3.1118 0.29104 5.6392 0.0818 11.279 0.11924 16.919 0.17956 0.2032 2e-3 0.40604 0.0829 0.75459 0.15875" />
        <path
            d="m241.07 55.397c-0.88794 0.72743-1.7445 0.95955-2.6585 1.0904-1.4005 0.20038-2.7922 0.46391-4.1931 0.66675-1.1324 0.16405-2.2722 0.28399-3.41 0.41205-1.9914 0.22578-4.0188 0.2854-5.9658 0.71226-2.2977 0.46262-4.277 0.66951-6.386 0.45014-0.18168-0.018-0.36442-0.10372-0.5401-0.0878-2.304 0.20461-4.6048 0.4579-6.912 0.62442-1.8073 0.13088-3.622 0.15839-5.4779-0.031 0.72249-0.14817 1.439-0.35701 2.1699-0.43427 2.0923-0.21872 4.1949-0.34643 6.2851-0.58279 3.6726-0.61202 7.1945-0.89306 10.641-1.1465 3.2417-0.24342 6.4826-0.49777 9.725-0.73978 1.2245-0.0914 2.4582-0.10442 3.6738-0.26106 0.96273-0.12453 1.9043-0.41275 3.0487-0.67274" />
        <path
            d="m105.99 57.727c-1.0329-0.0815-2.0645-0.1898-3.0984-0.23672-0.8643-0.0399-1.7321-7e-3 -2.5975-7e-3 -2.9774 0-5.9549-0.0318-8.9309 0.0102-2.0158 0.0286-4.0301 0.16299-6.0456 0.24519-0.17427 7e-3 -0.35031-0.0176-0.55845-0.28011 0.69391-0.11853 1.3836-0.2861 2.0821-0.34854 3.7303-0.3355 18.046-0.0797 19.166 0.32208-6e-3 0.0984-0.0116 0.1972-0.0173 0.29528" />
        <path
            d="m191.9 60.647c0.22542-0.32067 0.26387-0.43639 0.31961-0.44591 2.3643-0.40958 4.7308-0.80927 6.9829-1.1917 0.45085 0.53269 0.75882 0.89605 1.2083 1.4273-2.8399 0.0702-5.5795 0.13759-8.5108 0.21026" />
        <path
            d="m107.21 57.387c0.55528-0.0878 0.99343-0.21837 1.4302-0.21554 1.8362 0.0127 3.6724 0.0653 5.6476 0.10618-1.688 0.81245-5.5838 0.87454-7.0778 0.10936" />
        <path
            d="m130.01 57.457c-1.228 0.79869-2.3488 0.22472-3.4064 0.33831 1.0421-0.28857 2.086-0.55033 3.4064-0.33831" />
        <path
            d="m209.12 60.507h-2.2832c-8e-3 -0.0392-0.0148-0.0783-0.0219-0.11712 0.7613-0.048 1.5233-0.0953 2.2846-0.14323 7e-3 0.0868 0.0141 0.17357 0.0205 0.26035" />
    </g>
</svg>