<?xml version="1.0" encoding="utf-8"?>
<svg viewBox="0 0 38.4 38.4" xmlns="http://www.w3.org/2000/svg">
  <path d="M 6.626 3.303 L 38.42 3.303 L 31.775 35.097 L -0.019 35.097 L 6.626 3.303 Z M 9.233 16.043 L 6.885 27.275 L 9.621 27.275 L 10.571 22.731 L 13.995 22.731 L 14.44 20.603 L 11.016 20.603 L 11.511 18.235 L 16.087 18.235 L 16.545 16.043 L 9.233 16.043 Z M 27.389 16.043 L 22.644 23.819 L 21.117 16.043 L 17.885 16.043 L 15.537 27.275 L 18.273 27.275 L 19.685 20.523 L 20.801 27.275 L 23.009 27.275 L 26.929 20.539 L 25.521 27.275 L 28.257 27.275 L 30.605 16.043 L 27.389 16.043 Z" style=""/>
</svg>