<?xml version="1.0" encoding="UTF-8" standalone="no"?>
<!-- Created with Inkscape (http://www.inkscape.org/) -->

<svg
    width="1362.7629"
    height="898.5744"
    viewBox="0 0 360.56435 237.74781"
    version="1.1"
    id="svg5"
    xml:space="preserve"
    xmlns="http://www.w3.org/2000/svg"
    xmlns:svg="http://www.w3.org/2000/svg"><path
       style="fill:currentColor;"
       d="m 0.0184,176.34995 c 0.0107,-35.85614 0.14912,-61.31702 0.33279,-61.2035 0.17298,0.10691 0.41666,0.0291 0.5415,-0.1729 0.12484,-0.202 0.0168,-0.32365 -0.24021,-0.27034 -0.37781,0.0784 -0.48134,-1.8435 -0.54114,-10.04543 l -0.074,-10.14236 h 1.24368 c 0.68402,0 1.5530899,0.1656 1.9312699,0.36799 0.53319,0.28536 0.73489,0.24474 0.89821,-0.18088 0.11585,-0.30188 0.0322,-0.76391 -0.18597,-1.02674 -0.57051,-0.68742 0.21251,-1.20877 1.67033,-1.11212 0.64695,0.0429 1.40272,-0.14848 1.67949,-0.42525 0.27733,-0.27733 1.4121103,-0.56328 2.5279003,-0.637 1.3443098,-0.0888 1.9887698,-0.27566 1.9178498,-0.55603 -0.0587,-0.23224 0.1,-0.55343 0.35278,-0.71377 0.33949,-0.21533 0.29168,-0.29292 -0.18297,-0.29691 -0.35341,-0.003 -0.86651,-0.22935 -1.14023,-0.50307 -0.27372,-0.27372 -0.68736,-0.56089 -0.9191998,-0.63818 -0.62581,-0.2086 -0.01,-0.98081 0.7825298,-0.98081 0.37661,0 0.68474,-0.23813 0.68474,-0.52917 0,-0.30533 0.33576,-0.54095 0.79375,-0.55702 0.43656,-0.0153 0.59531,-0.10792 0.35278,-0.20579 -0.70787,-0.28563 -0.50747,-1.17747 0.26458,-1.17747 0.52175,0 0.70555,-0.23519 0.70555,-0.90276 0,-0.51201 0.1527,-0.8084 0.35278,-0.68474 0.19403,0.11992 0.35278,0.0499 0.35278,-0.15557 0,-0.20548 -0.15875,-0.3736 -0.35278,-0.3736 -0.19403,0 -0.35278,-0.23812 -0.35278,-0.52916 0,-0.29104 -0.22114,-0.52917 -0.49142,-0.52917 -0.46223,0 -0.91969,-0.71624 -0.91969,-1.43996 0,-0.17816 0.39688,-0.32393 0.88195,-0.32393 0.48507,0 0.88194,-0.1641 0.88194,-0.36468 0,-0.20056 -0.55562,-0.69249 -1.23472,-1.09317 -0.6791,-0.40068 -1.23472,-0.86411 -1.23472,-1.02984 0,-0.16573 0.18423,-0.70568 0.4094,-1.19988 0.32955,-0.72328 0.65983,-0.89854 1.69333,-0.89854 0.70617,0 1.47005,0.18612 1.69752,0.41359 0.22747,0.22747 0.7907,0.43009 1.25162,0.45027 0.63837,0.0279 0.79887,-0.11307 0.67367,-0.59185 -0.0904,-0.3457 0.0325,-0.86581 0.27321,-1.1558 0.36766,-0.443 0.23584,-0.61154 -0.82503,-1.0548 -0.69443,-0.29016 -1.56927,-0.85671 -1.94407,-1.25902 -0.81046,-0.86993 -0.61214,-2.09406 0.33927,-2.09406 0.36543,0 0.66441,0.12198 0.66441,0.27107 0,0.14909 0.42099,0.52651 0.93553,0.83872 0.73626,0.44673 1.2035,0.49365 2.19363,0.22026 0.69196,-0.19106 1.43786,-0.5932 1.657549,-0.89365 0.23674,-0.32376 0.69332,-0.46943 1.1209,-0.35761 0.64364,0.16831 0.69085,0.082 0.43777,-0.80045 -0.15602,-0.54401 -0.19235,-1.08044 -0.0807,-1.19206 0.11162,-0.11162 -0.15038,-0.20294 -0.58223,-0.20294 -0.53425,0 -0.70051,0.14092 -0.52024,0.44097 0.20564,0.3423 0.14087,0.34052 -0.28946,-0.008 -0.304919,-0.24689 -1.205879,-0.51371 -2.002149,-0.59293 -0.79627,-0.0792 -1.60914,-0.24376 -1.80639,-0.36567 -0.57724,-0.35674 -0.41205,-1.23832 0.23204,-1.23832 0.48959,0 0.44948,-0.15028 -0.23441,-0.87825 -0.81206,-0.86439 -0.81454,-0.88989 -0.15763,-1.61576 0.45972,-0.508 0.97182,-0.69284 1.64552,-0.59396 0.55202,0.081 0.97838,-0.0219 0.97878,-0.23633 4.2e-4,-0.2212 0.90612,-0.41374 2.168359,-0.46096 1.19221,-0.0446 2.20405,-0.12398 2.24853,-0.17639 0.0445,-0.0524 0.19781,-0.49217 0.34073,-0.97724 0.21247,-0.7211 0.17543,-0.80152 -0.20312,-0.44098 -0.63933,0.60894 -2.08576,0.56222 -2.08576,-0.0674 0,-0.27959 0.1828,-0.62132 0.40622,-0.7594 0.5736,-0.3545 -0.66126,-1.20169 -1.751559,-1.20169 -0.72242,0 -0.78844,0.0835 -0.41855,0.52916 0.31641,0.38125 0.32539,0.52917 0.0321,0.52917 -0.22387,0 -0.49292,-0.2238 -0.59789,-0.49733 -0.10496,-0.27353 -0.55732,-0.58931 -1.00525,-0.70173 -0.9404,-0.23603 -2.11119,-2.40562 -1.8458,-3.42047 0.1037,-0.39656 -0.005,-0.67214 -0.2657,-0.67214 -0.55618,0 -1.60915,-1.14161 -1.60915,-1.74461 0,-0.27527 0.26853,-0.38412 0.6813,-0.27618 0.38294,0.10014 0.98144,-0.10147 1.36669,-0.46038 0.6041,-0.56281 0.79527,-0.58154 1.61176,-0.15794 0.5095,0.26433 0.92636,0.34825 0.92636,0.18649 0,-0.16176 -0.23812,-0.38549 -0.52916,-0.49717 -0.29104,-0.11169 -0.52917,-0.42919 -0.52917,-0.70556 0,-0.63401 0.86185,-0.98613 1.31196,-0.53602 0.2121,0.2121 0.87296,0.21977 1.760119,0.0204 0.85292,-0.19163 1.65064,-0.19038 1.99644,0.003 0.72937,0.40817 0.73921,0.14815 0.0216,-0.5695 -0.3049,-0.30493 -0.9399,-0.5544 -1.41111,-0.5544 -0.54367,0 -0.85675,-0.20257 -0.85675,-0.55436 0,-0.3049 -0.24521,-0.79958 -0.544909,-1.09928 -0.2997,-0.2997 -0.48253,-0.72493 -0.40627,-0.94494 0.0762,-0.22001 -0.24806,-0.65838 -0.7207,-0.97415 L 18.29157,45.5655 19.3808,45.08337 c 0.59907,-0.26518 1.089219,-0.60933 1.089219,-0.76478 0,-0.15546 0.55562,-0.17841 1.23472,-0.051 1.11095,0.20841 1.23472,0.15285 1.23472,-0.55433 0,-0.65778 0.12945,-0.74309 0.79375,-0.52306 1.19857,0.39698 3.05982,0.3945 3.16772,-0.004 0.0525,-0.19402 -0.73796,-0.49416 -1.75661,-0.66697 -1.45754,-0.24727 -1.85208,-0.45393 -1.85208,-0.97014 0,-0.42075 0.25297,-0.65594 0.70555,-0.65594 0.38806,0 0.70556,-0.15875 0.70556,-0.35277 0,-0.19403 -0.82974,-0.0595 -1.05833,-0.35278 -0.12688,-0.1628 -0.12785,-0.42781 -0.0464,-0.61747 0.38526,-0.89712 1.42043,-1.85208 2.26916,-1.85208 0.96563,0 2.70952,-0.75809 2.71341,-1.17955 0.001,-0.16369 -0.31474,-0.38064 -0.7028,-0.48212 -1.0239,-0.26776 -0.86477,-1.03094 0.32476,-1.55747 l 1.03031,-0.45606 -0.88601,-0.821129 c -0.4873,-0.45161 -1.26844,-1.0717 -1.73586,-1.37797 -0.46743,-0.30626 -0.84986,-0.79736 -0.84986,-1.09132 0,-0.42477 0.32583,-0.49775 1.5875,-0.35554 1.41049,0.15898 1.5875,0.10051 1.5875,-0.52443 0,-0.71715 0.30769,-0.72678 1.93932,-0.0607 0.68646,0.28023 0.68873,0.26342 0.0882,-0.65312 -0.33903,-0.51741 -0.61641,-1.10509 -0.61641,-1.30594 0,-0.20086 0.39688,-0.36519 0.88195,-0.36519 0.48506,0 0.88194,-0.0907 0.88194,-0.20159 0,-0.11087 -0.23138,-0.43297 -0.51418,-0.71576 -0.58852,-0.58853 -0.35539,-1.5521 0.37553,-1.5521 0.27029,0 0.49143,-0.23678 0.49143,-0.52617 0,-0.2894 0.3175,-0.72446 0.70555,-0.96681 0.73891,-0.46145 0.95836,-1.83692 0.35278,-2.21118 -0.53543,-0.33092 -0.42266,-1.21524 0.2394,-1.87729 0.55437,-0.55437 0.54874,-0.6004 -0.0882,-0.72117 -0.89392,-0.16949 -1.25739,-0.75488 -1.04143,-1.67725 0.12234,-0.52251 -0.0979,-0.9478 -0.73069,-1.41111 -0.49819,-0.36475 -1.17073,-0.90301 -1.49452,-1.19612 -0.56983,-0.51584 -1.47066,-1.91518 -1.47066,-2.2845 0,-0.41006 1.35693,-0.14236 1.76388,0.34799 0.24155,0.29104 0.64997,0.52917 0.90761,0.52917 0.25765,0 0.5954,0.21495 0.75056,0.47766 0.15516,0.26272 0.6162,0.65282 1.02453,0.86689 0.67034,0.35143 0.73884,0.29649 0.70555,-0.56587 -0.0289,-0.74909 0.14314,-0.98054 0.79774,-1.07316 0.45902,-0.0649 0.91026,-0.40745 1.00275,-0.76113 0.0925,-0.35368 0.49064,-0.72738 0.88477,-0.83045 0.56936,-0.14889 0.67001,-0.37306 0.48983,-1.09095 -0.17859,-0.7115597 0.27645,-0.6086197 0.3973,-0.9200497 0.1048,-0.27007 0.26198,-0.53256 0.28383,-0.82143 0.0263,-0.34747 0.63868,-0.81176 -0.18891,-1.02818 -0.38806,-0.10147 -0.70556,-0.45826 -0.70556,-0.79286 0,-0.49813 0.2235,-0.57208 1.23362,-0.40816 1.39322,0.22609 1.32817,0.35523 1.82975,-3.63241 0.23028,-1.83078998 0.42112,-2.31512998 0.95196,-2.41608998 0.60155,-0.1144 0.64842,0.0607 0.4989,1.86382998 -0.0908,1.09455 -0.0275,2.07511 0.14064,2.17901 0.16812,0.10391 0.20376,0.73217 0.0792,1.39613 -0.16753,0.893 -0.10148,1.20862 0.25376,1.21262 0.84234,0.009 1.45352,0.59784 1.49668,1.44082 0.0327,0.63863 0.31209,0.8734 1.27324,1.06988 0.7193,0.14703 1.41427,0.0999 1.6712,-0.11333 0.24192,-0.20078 0.71968,-0.25201 1.0617,-0.11385 0.5555,0.22439 0.53716,0.28385 -0.1719,0.55726 -0.47253,0.18222 -0.79375,0.6046297 -0.79375,1.0438197 0,0.40576 0.14443,0.64849 0.32095,0.53939 0.17651,-0.10909 0.57812,-0.0997 0.89246,0.021 0.35794,0.13736 0.49616,0.45673 0.36986,0.85464 -0.13764,0.43368 0.0212,0.70607 0.50066,0.85822 0.46212,0.14668 0.62853,0.41514 0.48659,0.78503 -0.12907,0.33633 0.0553,0.76444 0.45897,1.06582 0.61263,0.45737 0.55301,0.48151 -0.64824,0.2625 -0.87977,-0.1604 -1.32291,-0.10987 -1.32291,0.15084 0,0.21562 0.2351,0.39204 0.52244,0.39204 0.28735,0 0.62674,0.43656 0.7542,0.97014 0.12747,0.53358 0.39124,1.17241 0.58616,1.41964 0.19493,0.24722 0.2921,0.50126 0.21594,0.56453 -0.0761,0.0633 -0.81315,0.28068 -1.63777,0.48313 -0.8412,0.20652 -1.49931,0.22971 -1.49931,0.0528 0,-0.1734 -0.14388,-0.31527 -0.31975,-0.31527 -0.46989,0 -0.0239,1.45413 0.75539,2.46287 0.4907,0.63517 0.9509,0.84655 1.6772,0.77037 0.67405,-0.0707 1.12264,0.10426 1.3736,0.53575 0.20497,0.3524 0.37867,0.19355 0.38339,0.37142 0.008,0.31252 -0.39116,0.49561 -0.63805,0.68741 -0.38704,0.30067 -0.70941,0.51316 -1.2915,0.70274 -0.77356,0.25194 -1.08837,0.5984 -1.16996,1.28762 -0.11008,0.92988 -0.87486,1.2772 -1.29948,0.59015 -0.11992,-0.19402 -0.37678,-0.35277 -0.57081,-0.35277 -0.19402,0 -0.24369,0.1765 -0.11037,0.39222 0.13332,0.21572 0.0236,0.53079 -0.24376,0.70015 -0.34314,0.21734 -0.1895,0.30952 0.52221,0.31334 0.89861,0.005 0.98429,0.10141 0.78703,0.88734 -0.18718,0.7458 -0.0978,0.88278 0.57912,0.88735 1.29282,0.009 1.83607,0.57545 1.92172,2.00481 0.13743,2.29339 0.25496,2.92868 0.54184,2.92868 0.15245,0 0.27718,0.225509 0.27718,0.501129 0,0.27563 0.47625,0.60574 1.05834,0.73359 0.89259,0.19604 1.05833,0.40024 1.05833,1.3039 0,0.89776 -0.11437,1.04153 -0.70555,0.88694 -0.52335,-0.13686 -0.70556,-0.0108 -0.70556,0.48802 0,0.36989 0.15875,0.67253 0.35278,0.67253 0.19403,0 0.35278,0.17818 0.35278,0.39597 0,0.27075 -0.13946,0.28381 -0.44098,0.0413 -0.24253,-0.19507 -0.93806,-0.27863 -1.54561,-0.18569 -0.91194,0.13949 -1.07128,0.29651 -0.91343,0.90013 0.1469,0.56176 0.0614,0.68137 -0.36888,0.51624 -0.30804,-0.1182 -0.74987,0.0138 -0.98184,0.29328 -0.23197,0.27951 -0.65089,0.5082 -0.93093,0.5082 -0.28004,0 -0.79529,0.15313 -1.14499,0.34028 -0.43781,0.23431 -0.5836,0.61351 -0.46813,1.21756 0.13685,0.71593 0.35524,0.8642 1.18749,0.80624 0.56088,-0.0391 0.6787,-0.33336 1.02048,-0.25511 0.74658,0.17093 1.05504,1.18329 1.7646,1.4716 0.35511,0.14429 0.90399,0.0688 1.14653,0.0882 0.67297,0.0538 0.96334,0.64748 0.79375,1.62278 -0.0844,0.48507 -0.0391,1.06581 0.10052,1.29054 0.13963,0.22473 0.84715,0.51989 1.57226,0.65592 1.04036,0.19518 1.36432,0.12761 1.53624,-0.3204 0.11982,-0.31225 0.35464,-0.56773 0.52181,-0.56773 0.16719,0 0.22235,0.21269 0.1226,0.47265 -0.0998,0.25996 0.064,0.67627 0.36385,0.92514 0.29987,0.24887 0.54522,0.60699 0.54522,0.79581 0,0.18883 -0.31937,0.79183 -0.70971,1.34002 -0.70023,0.98338 -0.75708,0.99641 -4.25513,0.97583 -1.97574,-0.0116 -3.70517,0.13889 -3.90624,0.33997 -0.24592,0.24591 0.0696,0.68274 0.99078,1.37168 0.74338,0.55597 1.60648,1.3167 1.91799,1.69052 0.55722,0.66868 0.57971,0.66725 1.39059,-0.0882 0.83187,-0.77501 1.76619,-0.98636 2.24476,-0.50778 0.14305,0.14304 0.50885,0.26211 0.8129,0.26458 0.30404,0.002 0.7294,0.322 0.94524,0.71006 0.47711,0.85779 0.98731,1.25821 1.42646,1.11949 0.18066,-0.0571 0.52214,-0.65613 0.79424,-1.31718 0.31995,-0.63074 0.42825,-0.83576 0.35183,-0.0795 -0.0977,0.97267 0.0277,1.18332 0.88145,1.48096 0.54747,0.19085 0.99539,0.60275 0.99539,0.91533 0,0.31259 0.14395,0.47938 0.31988,0.37065 0.17593,-0.10874 0.24584,0.0854 0.15535,0.43147 -0.14186,0.54246 0.0329,0.61036 1.26762,0.49261 1.37703,-0.13133 1.43215,-0.0971 1.43215,0.88825 0,0.56366 -0.1905,1.21533 -0.42333,1.44816 -0.32926,0.32926 -0.25362,0.42334 0.34037,0.42334 0.64803,0 1.49407,0.88581 1.49407,1.56431 0,0.37199 -1.08826,0.20205 -2.22238,-0.34704 -1.102,-0.53354 -1.11213,-0.53114 -0.42345,0.10049 0.38806,0.35592 0.75233,0.86128 0.8095,1.12304 0.0758,0.34697 -0.1689,0.42135 -0.90308,0.27451 -1.17184,-0.23437 -2.77764,0.47989 -2.62054,1.16561 0.0765,0.33412 -0.0264,0.37087 -0.35278,0.1259 -0.25348,-0.19027 -0.65931,-0.31636 -0.90185,-0.2802 -0.24253,0.0362 -0.56528,0.0856 -0.7172,0.10984 -0.32922,0.0526 -0.30054,1.70158 0.0354,2.03756 0.12907,0.12907 0.0594,0.44584 -0.15477,0.70393 -0.29459,0.35496 -0.2443,0.52495 0.20647,0.69793 0.32776,0.12577 0.73858,0.6039 0.91294,1.06251 0.32339,0.85058 1.46492,1.19433 1.30463,0.39286 -0.0485,-0.24254 0.2293,-0.45785 0.61736,-0.47848 0.38805,-0.0206 1.00809,-0.16617 1.37786,-0.32341 0.49138,-0.20896 0.83889,-0.0802 1.29127,0.47848 0.67588,0.83467 1.74081,0.97789 2.85146,0.38349 0.55797,-0.29862 0.85779,-0.2487 1.38792,0.23106 0.37192,0.33658 0.67621,0.90486 0.67621,1.26284 0,0.50699 0.26929,0.65088 1.21812,0.65088 0.66997,0 1.59754,0.17287 2.06127,0.38416 0.69702,0.31758 0.84722,0.65385 0.86667,1.94028 0.0197,1.3046 -0.0854,1.55612 -0.65016,1.55612 -0.37052,0 -0.67368,0.17611 -0.67368,0.39137 0,0.26055 -0.44219,0.30961 -1.32291,0.14676 -2.16028,-0.39945 -4.67326,-0.2368 -5.24984,0.33978 -0.46563,0.46563 -0.64619,0.46682 -1.52932,0.0101 -0.80452,-0.41604 -1.03587,-0.42788 -1.17694,-0.0603 -0.0966,0.25166 0.12607,0.64595 0.49477,0.87621 0.68496,0.42776 0.93093,1.471 0.34683,1.471 -0.17795,0 -1.06423,-0.3175 -1.96953,-0.70556 -1.66994,-0.71582 -4.40972,-0.96184 -4.40972,-0.39597 0,0.17027 0.23812,0.50721 0.52916,0.74875 0.29105,0.24154 0.52917,0.88112 0.52917,1.42128 0,0.79445 -0.1293,0.9483 -0.67667,0.80516 -0.37217,-0.0973 -0.86518,-0.63206 -1.09558,-1.1883 -0.32643,-0.78807 -0.7417,-1.07707 -1.88097,-1.30902 -1.08386,-0.22066 -1.44834,-0.45854 -1.40902,-0.91959 0.0317,-0.37165 -0.12783,-0.55252 -0.39643,-0.44945 -0.24721,0.0949 -0.65509,-0.21172 -0.9064,-0.6813 -0.25131,-0.46956 -0.66284,-0.85377 -0.91452,-0.85377 -0.25167,0 -1.0166,-0.26657 -1.69985,-0.59239 -0.68324,-0.32582 -1.36058,-0.47406 -1.50521,-0.32943 -0.14463,0.14463 -0.34507,1.24464 -0.44543,2.44447 l -0.18247,2.18152 0.97876,0.038 c 1.28988,0.0501 1.63476,0.44273 0.8761,0.99748 -0.58281,0.42616 -0.58278,0.47643 7.1e-4,1.00423 0.4457,0.40326 1.5814,0.5944 4.14185,0.69707 1.94028,0.0778 3.92466,0.26168 4.40973,0.40863 0.67504,0.20451 0.7578,0.17851 0.35277,-0.11079 -0.45709,-0.3265 -0.44508,-0.37872 0.0882,-0.38338 0.33955,-0.003 0.61737,0.13133 0.61737,0.29845 0,0.16713 0.41042,0.2254 0.91206,0.12951 0.79631,-0.15222 0.89704,-0.0677 0.79375,0.66628 -0.0947,0.6728 0.0225,0.81779 0.58724,0.72621 0.38806,-0.0629 0.98337,-0.13664 1.32292,-0.16379 0.33955,-0.0272 0.61736,-0.16912 0.61736,-0.31548 0,-0.14636 0.23812,-0.17473 0.52917,-0.0631 0.29104,0.11169 0.52916,0.051 0.52916,-0.13482 0,-0.20753 0.46585,-0.19207 1.20747,0.04 0.6641,0.20786 1.13098,0.50168 1.03751,0.65292 -0.0935,0.15124 0.33418,0.27499 0.95035,0.27499 0.91266,0 1.08895,0.11986 0.95117,0.64676 -0.10291,0.39351 0.0191,0.64676 0.31163,0.64676 0.26442,0 0.48076,-0.13229 0.48076,-0.29399 -1.5e-4,-0.16168 0.31735,-0.29398 0.7054,-0.29398 0.38806,0 0.70556,0.15875 0.70556,0.35278 0,0.19403 0.23812,0.35278 0.52917,0.35278 0.29104,0 0.52916,0.23091 0.52916,0.51313 0,0.61238 1.68115,2.37881 1.83405,1.92709 0.0584,-0.17263 0.83842,-0.414 1.73332,-0.53638 1.50397,-0.20569 1.6423,-0.15934 1.82809,0.61251 0.11054,0.45927 0.16935,1.43035 0.13068,2.15795 -0.0387,0.72761 0.0515,1.32292 0.20039,1.32292 0.4187,0 0.31953,1.92672 -0.1219,2.36815 -0.49681,0.49681 -0.0487,1.26909 0.59337,1.0227 0.59516,-0.22839 1.05323,0.44232 0.90718,1.3283 -0.0945,0.57332 0.051,0.63216 1.08427,0.43832 1.46887,-0.27556 2.31061,0.28396 2.59014,1.7217 0.16759,0.86204 -0.0131,1.3037 -0.97435,2.38125 -0.64906,0.7276 -1.36128,1.32291 -1.58272,1.32291 -0.22143,0 -0.45553,0.15601 -0.5202,0.34667 -0.0647,0.19067 -0.69247,0.38911 -1.3951,0.44097 -0.76962,0.0568 -1.2173,0.25172 -1.12607,0.49025 0.21053,0.55041 -1.3892,0.79583 -3.77653,0.57936 -1.29814,-0.11772 -2.10064,-0.0414 -2.25899,0.21481 -0.16163,0.26153 0.1535,0.4121 0.92175,0.44041 6.20024,0.22849 6.16004,0.22046 6.61645,1.32233 0.23068,0.55691 0.80556,1.18851 1.27752,1.40355 0.47195,0.21504 0.8581,0.5492 0.8581,0.74258 0,0.23068 0.32893,0.22655 0.95637,-0.012 1.17569,-0.447 2.5714,-0.14077 2.5714,0.56419 0,0.29685 0.32242,0.52244 0.7467,0.52244 0.6022,0 0.70553,0.15361 0.53399,0.79376 -0.117,0.43656 -0.21489,0.97498 -0.21754,1.19648 -0.003,0.2215 -0.40169,0.50233 -0.88676,0.62408 -0.54498,0.13678 -0.88195,0.47186 -0.88195,0.87699 0,0.81195 -0.88505,1.58957 -1.52824,1.34275 -0.2634,-0.10108 -0.69734,0.11929 -0.96432,0.4897 -0.60509,0.83952 -1.24402,0.86045 -1.71251,0.0561 -0.19777,-0.33955 -0.36441,-0.44362 -0.3703,-0.23126 -0.006,0.21235 0.34646,0.79727 0.78302,1.29982 0.73164,0.84221 0.86276,0.87509 1.67569,0.42014 1.04059,-0.58234 4.8339,-0.67514 6.21009,-0.15192 0.53039,0.20166 1.16264,0.63782 1.40498,0.96924 0.35409,0.48425 0.88628,0.57968 2.70979,0.4859 1.29277,-0.0665 3.013009,0.10131 3.997849,0.38994 0.95077,0.27865 1.94921,0.43004 2.21875,0.33641 0.32763,-0.11379 0.39726,-0.02 0.21008,0.28283 -0.19916,0.32225 -0.14068,0.36695 0.20253,0.15483 0.74533,-0.46064 2.72454,-0.57347 2.97417,-0.16956 0.12283,0.19874 0.61254,0.26367 1.08824,0.14428 0.47569,-0.11939 1.069692,-0.0471 1.319982,0.16061 0.33165,0.27524 0.73829,0.20545 1.49925,-0.25732 0.89023,-0.54138 1.67957,-0.70515 3.85734,-0.80029 0.19403,-0.008 2.09903,0.0867 4.23333,0.21153 3.05873,0.17888 4.25412,0.40707 5.64445,1.07744 2.97058,1.43234 4.44563,1.93918 5.64343,1.93918 1.78058,0 3.3524,0.39899 3.3524,0.85098 0,0.22549 0.34291,0.43582 0.76201,0.46739 0.41911,0.0316 0.85726,0.21152 0.97367,0.39988 0.11642,0.18837 0.67032,0.4576 1.23089,0.59829 0.65109,0.16342 0.94036,0.12822 0.80089,-0.0975 -0.13226,-0.214 0.12513,-0.28761 0.65294,-0.18671 0.4792,0.0916 0.87127,0.36919 0.87127,0.61685 0,0.24767 0.2558,0.54846 0.56844,0.66843 0.41278,0.1584 0.51049,0.0671 0.35682,-0.33336 -0.12168,-0.31709 -0.0634,-0.45988 0.13711,-0.33595 0.19181,0.11854 0.34874,0.41253 0.34874,0.65332 0,0.24078 0.18833,0.62612 0.41852,0.85631 0.32283,0.32283 0.55509,0.29491 1.01593,-0.12214 0.54382,-0.49216 0.71639,-0.42844 1.92388,0.71037 0.72956,0.68807 1.61024,1.25103 1.95708,1.25103 0.34683,0 0.95325,0.41018 1.3476,0.91152 0.39435,0.50133 0.88212,0.80946 1.08394,0.68473 0.20182,-0.12473 0.36694,0.006 0.36694,0.29018 0,0.33053 0.23692,0.455 0.65697,0.34515 0.45276,-0.11839 0.71664,0.0564 0.84892,0.5622 0.11508,0.44008 0.47936,0.734 0.9097,0.734 0.39477,0 0.81748,0.16133 0.93935,0.35853 0.12187,0.19719 0.36937,0.2672 0.54999,0.15556 0.18062,-0.11162 0.3284,-0.0163 0.3284,0.21177 0,0.25253 0.34612,0.34856 0.88503,0.24554 0.75617,-0.14455 0.82078,-0.0918 0.44374,0.36254 -0.37817,0.45566 -0.32445,0.49463 0.3756,0.27245 0.58553,-0.18585 0.94416,-0.0852 1.26629,0.35533 0.28148,0.38495 0.53488,0.47631 0.67816,0.24449 0.35055,-0.56721 3.38798,1.00817 3.39829,1.76254 0.005,0.33954 0.24656,0.61736 0.5376,0.61736 0.72974,0 1.84216,1.1763 1.65198,1.74685 -0.0897,0.26915 0.006,0.36762 0.22631,0.23174 0.6425,-0.39709 2.14037,0.16723 2.37078,0.89319 0.12836,0.40445 0.67535,0.78181 1.33556,0.92141 0.61498,0.13003 1.27244,0.19114 1.46103,0.13579 0.18858,-0.0553 0.0558,0.21657 -0.29502,0.60425 -0.62926,0.69531 -0.61836,0.70262 0.80365,0.53926 1.26453,-0.14528 1.44155,-0.0784 1.44155,0.54487 0,0.48483 0.16713,0.64636 0.5262,0.50857 0.30043,-0.11528 0.61934,0.0408 0.7433,0.36385 0.1194,0.31118 0.52699,0.56577 0.90574,0.56577 0.37874,0 0.60079,0.14212 0.49344,0.31582 -0.10735,0.17369 0.0435,0.4074 0.33523,0.51934 0.29173,0.11195 0.48926,0.4064 0.43895,0.65433 -0.0503,0.24794 0.10697,0.43491 0.34951,0.41551 1.29327,-0.10346 1.42283,-0.18093 1.27134,-0.76024 -0.089,-0.34052 0.15542,-0.95974 0.54327,-1.37605 0.65044,-0.69816 0.80929,-0.72112 2.04656,-0.29577 0.89983,0.30935 1.41527,0.34161 1.56584,0.098 0.12344,-0.19974 0.79833,-0.29616 1.49976,-0.21428 0.70142,0.0819 1.27531,0.0428 1.27531,-0.0869 0,-0.12968 0.57531,-0.32915 1.27848,-0.44325 0.70316,-0.11411 1.56052,-0.46272 1.90525,-0.7747 0.36213,-0.32773 0.71525,-0.42408 0.83631,-0.22819 0.13257,0.2145 0.69612,0.21797 1.53433,0.009 1.36006,-0.33837 4.85069,-0.68314 4.05883,-0.40089 -0.82497,0.29405 -0.44435,0.71726 0.96734,1.07558 0.77457,0.19661 1.32195,0.21774 1.2164,0.047 -0.2755,-0.44577 0.98753,0.0802 1.56592,0.65209 0.26755,0.26455 0.70919,0.39553 0.98143,0.29106 0.30068,-0.11539 0.61789,0.13337 0.80812,0.6337 0.33185,0.87284 2.71695,2.5243 3.45099,2.38949 0.25903,-0.0476 0.3509,0.1401 0.22684,0.46339 -0.15489,0.40364 0.028,0.54334 0.71119,0.54334 0.50583,0 0.91969,-0.15875 0.91969,-0.35278 0,-0.19403 0.17819,-0.35278 0.39597,-0.35278 0.27079,0 0.2549,0.16999 -0.0503,0.53769 -0.24544,0.29573 -0.33824,0.64569 -0.20625,0.77769 0.41102,0.41102 1.91366,0.48397 2.1483,0.1043 0.27716,-0.44844 1.94558,-0.481 1.94558,-0.038 0,0.17786 -0.19844,0.40346 -0.44097,0.50132 -0.24254,0.0979 -0.0888,0.19047 0.34171,0.20578 0.58486,0.0208 0.72668,-0.11805 0.56114,-0.54945 -0.15355,-0.40014 -0.069,-0.52193 0.27566,-0.39687 0.27345,0.0992 0.4575,0.35902 0.40899,0.5773 -0.0485,0.21828 0.30868,0.39688 0.79375,0.39688 0.48507,0 0.88194,-0.16812 0.88194,-0.3736 0,-0.20548 0.1939,-0.25377 0.43088,-0.1073 0.61915,0.38265 2.49489,0.17862 2.79305,-0.30382 0.13916,-0.22517 0.002,-0.59274 -0.30418,-0.81682 -0.36916,-0.26994 -0.42833,-0.48707 -0.17534,-0.64342 0.21001,-0.1298 0.48182,-0.0742 0.60402,0.12349 0.15047,0.24347 0.44296,0.24132 0.90632,-0.007 0.37628,-0.20138 0.68414,-0.25658 0.68414,-0.12267 0,0.13392 0.3175,-0.0438 0.70556,-0.39504 0.40011,-0.3621 0.70555,-0.46213 0.70555,-0.23106 0,0.2241 0.18521,0.40745 0.41158,0.40745 0.22636,0 0.30821,-0.10337 0.18187,-0.2297 -0.30858,-0.30857 0.84349,-1.15614 1.59059,-1.17019 0.3281,-0.006 0.70982,-0.1945 0.84826,-0.4185 0.16934,-0.274 0.0896,-0.31321 -0.24376,-0.11983 -0.27252,0.1581 -0.38452,0.16426 -0.24889,0.0137 0.13563,-0.15056 0.92383,-0.32426 1.75156,-0.386 0.84787,-0.0632 1.68136,-0.35347 1.90896,-0.66474 0.2222,-0.30388 0.52021,-0.55251 0.66225,-0.55251 0.14203,0 0.63212,-0.29409 1.08909,-0.65354 0.66028,-0.51938 0.74413,-0.75126 0.40842,-1.12952 -0.35386,-0.39871 -0.32043,-0.39866 0.20596,3.4e-4 0.5389,0.40848 0.69318,0.3877 1.08335,-0.1459 0.35629,-0.48725 1.14626,-0.66162 3.64222,-0.80393 1.89055,-0.10779 3.45158,-0.0338 3.83697,0.18187 0.44658,0.24992 0.93127,0.24913 1.55023,-0.002 0.49528,-0.20138 1.45613,-0.47318 2.13523,-0.60401 0.72334,-0.13935 1.19458,-0.42232 1.13779,-0.68322 -0.0533,-0.24494 0.0548,-0.35158 0.24021,-0.23698 0.18542,0.1146 0.43845,0.0444 0.56228,-0.15592 0.12383,-0.20036 0.37404,-0.27226 0.55603,-0.15978 0.18199,0.11247 0.88809,-0.26474 0.99871,-0.55296 0.11061,-0.28826 0.32212,-0.52592 1.04041,-0.81332 0.5782,-0.31465 1.25417,-0.38391 1.8411,-0.67486 0.81841,-0.40568 1.08516,-0.78868 1.91993,-1.14997 0.34351,-0.14868 1.02827,-0.0203 1.48573,-0.21731 0.49999,-0.21534 0.77388,-0.75589 1.15539,-0.9019 1.03625,-0.3966 2.08396,-0.76208 3.14247,-1.09826 1.22345,-0.38856 2.46132,-1.09041 3.71259,-1.40345 0.3678,-0.092 0.73675,0.17155 1.10684,0.0857 0.79483,-0.18427 1.69559,-0.70682 2.50061,-0.86346 0.49067,-0.0955 0.61122,0.23485 1.08366,0.22573 0.60025,-0.0116 1.14928,-0.40499 1.78294,-0.49847 0.42618,-0.0629 0.95947,-0.26016 1.49129,-0.30345 0.50551,-0.0411 1.0097,0.0714 1.41929,0.0239 0.71142,-0.0826 1.42606,-0.15646 2.14374,-0.22207 0.51581,-0.0471 1.15454,0.0313 1.67344,-0.007 0.46309,-0.0346 0.80604,-0.18724 1.2715,-0.21544 0.29662,-0.018 0.59371,-0.0346 0.89126,-0.0501 0.54042,-0.028 0.88822,0.53049 1.43162,0.51055 0.31145,-0.0114 0.52384,-0.30538 0.86523,-0.40124 0.67738,-0.1902 1.50624,-0.24196 2.12965,-0.25001 0.29548,-0.004 0.42145,0.21142 0.7177,0.21042 0.74336,0.003 0.51306,0.29247 1.56791,0.22583 0.32523,-0.97227 0.72011,0.0804 1.74304,-0.48476 0.21412,-0.13233 0.36823,0.10465 0.36823,0.56623 0,0.67291 0.0672,0.71583 0.44098,0.28182 0.71934,-0.83519 2.57802,-2.32313 2.06279,-1.65135 -0.28305,0.36905 -0.32379,0.61737 -0.10129,0.61737 0.20471,0 0.47297,-0.3175 0.59613,-0.70556 0.15491,-0.48807 0.53377,-0.70556 1.2291,-0.70556 0.55284,0 1.08568,0.19844 1.18409,0.44098 0.13455,0.33158 0.26991,0.3097 0.5457,-0.0882 0.20172,-0.29104 0.57099,-0.53638 0.82061,-0.5452 0.24961,-0.009 0.41063,-0.21783 0.35781,-0.46447 -0.0554,-0.25875 0.17053,-0.40328 0.53411,-0.34169 0.63176,0.10703 2.20775,-1.1799 2.20775,-1.80282 0,-0.61711 0.57524,-0.69261 1.5246,-0.20007 0.51967,0.2696 0.94484,0.34085 0.94484,0.15833 0,-0.18252 0.22115,-0.33186 0.49143,-0.33186 0.27028,0 0.5828,-0.23812 0.69448,-0.52916 0.11169,-0.29104 0.44617,-0.52917 0.7433,-0.52917 0.29713,0 0.54024,-0.2113 0.54024,-0.46955 0,-0.57385 1.56212,-1.46068 2.04607,-1.16158 0.37811,0.23368 0.77616,-0.53266 0.77616,-1.49432 0,-0.71692 0.8792,-1.51885 2.4063,-2.19481 0.64585,-0.28588 1.12148,-0.75913 1.12148,-1.11586 0,-0.37122 0.26594,-0.61943 0.66368,-0.61943 0.36503,0 1.08748,-0.55563 1.60546,-1.23473 0.51797,-0.67909 1.19125,-1.23472 1.49618,-1.23472 0.4528,0 0.47392,-0.097 0.11523,-0.52917 -0.35037,-0.42217 -0.35037,-0.63615 0,-1.05833 0.36975,-0.44551 0.30455,-0.52917 -0.41247,-0.52917 -0.63989,0 -0.99836,-0.3237 -1.44174,-1.30191 -0.40065,-0.88394 -0.47753,-1.43755 -0.23946,-1.72441 0.23437,-0.2824 0.21483,-0.72056 -0.0589,-1.32142 -0.22527,-0.49442 -0.31432,-1.14719 -0.19789,-1.4506 0.27093,-0.70604 1.87561,-0.71408 3.54214,-0.0178 0.74712,0.31217 1.27781,0.38542 1.27781,0.17639 0,-0.19663 0.54625,-0.35751 1.2139,-0.35751 0.66764,0 1.3062,-0.14935 1.41902,-0.33188 0.12162,-0.1968 -0.29946,-0.25 -1.03453,-0.13072 -1.25377,0.20346 -2.48254,-0.37415 -2.10285,-0.98849 0.10632,-0.17204 -0.0621,-0.3128 -0.37418,-0.3128 -0.31214,0 -1.03588,-0.2422 -1.60833,-0.53823 -0.74817,-0.38691 -1.04081,-0.79644 -1.04081,-1.45657 0,-0.90358 0.0297,-0.91442 1.85208,-0.67474 1.01865,0.13397 2.0029,0.39255 2.18723,0.57461 0.4795,0.47361 1.63929,0.38733 2.66347,-0.19814 0.83672,-0.47831 0.76994,-0.50481 -1.3021,-0.51667 -1.20122,-0.007 -2.28215,-0.17125 -2.40207,-0.36528 -0.11992,-0.19403 -0.57519,-0.35278 -1.01173,-0.35278 -0.43653,0 -1.09585,-0.22094 -1.46516,-0.49099 -0.53784,-0.39328 -0.58698,-0.59281 -0.24688,-1.0026 0.23353,-0.28138 0.32753,-0.60867 0.2089,-0.7273 -0.40335,-0.40335 0.23267,-2.01244 0.79545,-2.01244 0.35913,0 0.48547,-0.19471 0.352,-0.54252 -0.27542,-0.71774 0.49637,-0.98111 1.6215,-0.55334 0.96922,0.3685 2.39175,0.15653 2.39175,-0.3564 0,-0.17139 -0.20067,-0.31163 -0.44594,-0.31163 -0.24527,0 -0.72105,-0.635 -1.05729,-1.41111 -0.33623,-0.77611 -0.93496,-1.2945 -0.87697,-1.42896 l 0.50012,-1.1595 c 0.0805,-0.0805 -0.41608,-0.47816 -1.10346,-0.88372 -0.68739,-0.40557 -1.24979,-0.90648 -1.24979,-1.11314 0,-0.55534 1.04765,-0.85817 1.47846,-0.42736 0.26176,0.26176 0.59498,0.16563 1.11937,-0.32291 0.48487,-0.45173 1.02467,-0.62584 1.53959,-0.4966 0.43612,0.10946 1.11721,-0.002 1.51353,-0.24761 0.59707,-0.37007 0.77668,-0.35643 1.0479,0.0796 0.26069,0.41909 0.4165,0.43704 0.76535,0.0882 0.34884,-0.34884 0.31234,-0.43802 -0.17934,-0.43802 -0.51812,0 -0.58969,-0.24102 -0.44527,-1.49931 0.0947,-0.82462 0.18196,-1.53899 0.19403,-1.5875 0.0612,-0.24607 1.01709,-0.0248 1.91435,0.44315 1.54355,0.80501 1.69654,0.63752 0.55714,-0.60996 -0.57114,-0.62533 -1.03844,-1.23265 -1.03844,-1.34962 0,-0.11696 0.39488,-0.58363 0.87751,-1.03704 0.62355,-0.5858 1.25413,-0.81022 2.17884,-0.77546 1.26256,0.0475 2.23531,-0.40328 2.23531,-1.03579 0,-0.17027 -0.56499,-0.30958 -1.25554,-0.30958 -0.69055,0 -1.17221,-0.13483 -1.07037,-0.29961 0.21235,-0.34359 -0.92794,-0.95888 -2.34839,-1.26717 -0.53786,-0.11674 -0.97014,-0.44828 -0.97014,-0.74407 0,-0.29344 -0.23813,-0.6249 -0.52917,-0.73658 -0.29104,-0.11168 -0.52916,-0.58295 -0.52916,-1.04726 0,-0.58805 0.19923,-0.8442 0.65663,-0.8442 0.51228,0 0.61912,-0.19624 0.486,-0.89264 -0.0938,-0.49095 -0.47316,-1.05454 -0.84291,-1.25242 -0.36974,-0.19788 -0.57289,-0.52057 -0.45144,-0.7171 0.12146,-0.19651 -0.0248,-0.62874 -0.32505,-0.96049 -0.62738,-0.69325 -0.3664,-1.24896 0.65316,-1.39076 1.2125,-0.16863 1.50003,-0.27206 2.06887,-0.74415 0.36944,-0.30661 1.01225,-0.38092 1.93966,-0.22423 0.93692,0.15829 1.4738,0.0941 1.65421,-0.19783 0.14691,-0.2377 0.12351,-0.34438 -0.052,-0.23708 -0.4361,0.26664 -2.6424,-0.83567 -3.07719,-1.53744 -0.53103,-0.85708 -0.064,-1.62886 1.14646,-1.89473 1.02736,-0.22564 1.0711,-0.30497 0.8681,-1.57443 -0.20829,-1.30258 -0.18229,-1.34273 1.01511,-1.56736 0.67588,-0.1268 1.61646,-0.0832 2.09018,0.0969 0.69598,0.26461 0.94595,0.19192 1.30234,-0.37875 0.36347,-0.58201 0.34373,-0.81375 -0.11222,-1.31757 -0.30429,-0.33624 -0.55326,-0.87881 -0.55326,-1.20572 0,-0.3269 -0.1838,-0.88868 -0.40845,-1.2484 -0.59331,-0.95004 -0.11992,-1.87934 0.88992,-1.74701 0.46028,0.0603 1.21493,-0.16682 1.67701,-0.50475 0.46207,-0.33793 1.15553,-0.83775 1.541,-1.11072 0.66742,-0.47261 0.67163,-0.52861 0.0882,-1.1733 -0.33697,-0.37235 -0.61268,-1.0402 -0.61268,-1.48412 0,-0.64365 0.14854,-0.76827 0.73342,-0.61532 0.54795,0.14329 0.68231,0.0586 0.53133,-0.33486 -0.15425,-0.40197 0.0271,-0.50027 0.76589,-0.41523 0.69973,0.0805 0.97844,0.3181 1.00571,0.8572 0.0494,0.97548 0.45626,1.61065 0.86859,1.35582 0.40346,-0.24935 0.43385,1.07639 0.0433,1.89034 -0.16007,0.33362 -0.0952,1.29031 0.14799,2.18167 0.2555,0.93655 0.44472,1.25749 0.46146,0.78268 0.0156,-0.44266 0.27415,-0.89913 0.57451,-1.01439 0.61995,-0.23789 1.54215,0.78585 1.55933,1.73102 0.006,0.33954 0.16997,0.61736 0.364,0.61736 0.19403,0 0.35278,0.23812 0.35278,0.52916 0,0.31026 -0.32837,0.53381 -0.79375,0.54039 -0.7614,0.0108 -0.76678,0.0316 -0.13214,0.51222 0.39448,0.29872 0.57415,0.72889 0.44501,1.06543 -0.14927,0.389 -0.081,0.48064 0.21965,0.29483 0.23993,-0.14829 1.04133,-0.30072 1.78089,-0.33873 1.11357,-0.0572 1.39789,0.071 1.65461,0.74619 0.17048,0.44842 0.47851,0.91947 0.68451,1.04678 0.206,0.12731 0.37454,0.4514 0.37454,0.72019 0,0.69242 -2.13861,2.88075 -3.09192,3.1638 -0.43938,0.13046 -0.70306,0.39223 -0.58595,0.58171 0.13429,0.2173 0.39101,0.1967 0.69522,-0.0558 0.26527,-0.22016 0.65615,-0.29284 0.86862,-0.16152 0.21247,0.13131 0.77505,-0.1807 1.25017,-0.69336 0.47512,-0.51267 0.86885,-1.04301 0.87494,-1.17853 0.0222,-0.49402 1.80424,-1.53688 2.30067,-1.34638 0.83302,0.31966 0.59962,1.86058 -0.40105,2.64771 -0.50133,0.39435 -0.80877,0.88324 -0.68319,1.08643 0.12557,0.20318 -0.0227,0.46574 -0.32946,0.58347 -0.30677,0.11771 -0.51527,0.47039 -0.46333,0.78373 0.0621,0.37462 -0.50953,0.87425 -1.66944,1.45916 -0.97013,0.48921 -1.73357,1.04822 -1.69651,1.24225 0.0371,0.19403 0.43393,0.43843 0.88195,0.54312 0.56057,0.13099 0.84921,0.48689 0.92569,1.14143 0.10166,0.87001 0.21816,0.93738 1.36655,0.79035 0.76357,-0.0978 1.54015,0.0387 1.98219,0.34832 0.41,0.28718 1.08291,0.41967 1.54387,0.30398 0.66941,-0.16801 0.81709,-0.0643 0.81709,0.57357 0,0.42826 -0.51594,1.26198 -1.14653,1.8527 l -1.14653,1.07405 0.79375,0.35612 c 0.43657,0.19587 0.79375,0.57936 0.79375,0.8522 0,0.28515 0.17318,0.38905 0.40729,0.24436 0.25234,-0.15595 0.31152,-0.0968 0.15557,0.15557 -0.15767,0.25512 -1.3496,0.40729 -3.19031,0.40729 -2.58184,0 -2.93265,0.0749 -2.8896,0.61719 0.066,0.83168 -1.21315,0.98028 -2.53855,0.29488 -0.94478,-0.48856 -1.06855,-0.48783 -1.2586,0.007 -0.29643,0.77248 -0.2699,0.84491 0.23808,0.64998 0.42846,-0.16441 1.39133,0.41742 2.71474,1.64042 0.39444,0.36451 1.00366,0.50636 1.72199,0.40093 0.61139,-0.0897 1.11162,-0.28621 1.11162,-0.43663 0,-0.15041 0.54944,-0.37655 1.22099,-0.50253 0.67155,-0.12599 1.7019,-0.70997 2.28968,-1.29775 0.76448,-0.76448 1.33804,-1.03681 2.01499,-0.95673 0.52047,0.0616 1.00481,0.29041 1.07631,0.50852 0.22388,0.68299 -1.58548,2.48716 -3.51561,3.50551 -1.445,0.76239 -2.39397,0.99229 -4.32109,1.04681 -1.35818,0.0384 -2.77759,0.0916 -3.15422,0.11814 -0.67163,0.0473 -0.67189,0.0577 -0.0133,0.53925 0.57051,0.41717 0.60068,0.5763 0.20062,1.05833 -0.25897,0.31204 -0.8086,0.58099 -1.2214,0.59766 -0.58745,0.0237 -0.52056,0.10579 0.30778,0.37756 1.58864,0.52123 5.46804,0.91112 5.46804,0.54956 0,-0.17264 0.62303,-0.20864 1.38451,-0.08 1.14605,0.19362 1.44653,0.11803 1.74458,-0.43889 0.19805,-0.37005 1.08477,-1.05666 1.9705,-1.52582 0.88574,-0.46916 1.69902,-1.17052 1.8073,-1.55857 0.10827,-0.38806 0.51299,-1.51691 0.89937,-2.50856 0.54049,-1.38716 1.22652,-2.23647 2.97451,-3.68247 1.24961,-1.03371 2.27201,-1.98644 2.27201,-2.11718 0,-0.13074 1.19062,-1.43608 2.64583,-2.90076 1.45521,-1.46468 2.64583,-2.76297 2.64583,-2.88508 0,-0.12211 0.30077,-0.65216 0.66836,-1.17788 0.372,-0.532 0.83588,-2.12908 1.04614,-3.60168 0.20779,-1.45521 0.46464,-3.25913 0.5708,-4.00871 0.20496,-1.44727 1.454,-3.52857 1.93805,-3.22941 0.15886,0.0982 0.37482,-0.0456 0.47991,-0.31944 0.10531,-0.27443 -0.076,-0.60087 -0.404,-0.72725 -0.55101,-0.21232 -0.54881,-0.25529 0.0297,-0.58004 0.34363,-0.19291 0.54584,-0.47847 0.44936,-0.63458 -0.0965,-0.15612 0.28193,-0.2306 0.84092,-0.16551 0.65362,0.0761 1.08735,-0.0667 1.21527,-0.40003 0.10941,-0.2851 0.0451,-0.53821 -0.14279,-0.56246 -0.18794,-0.0242 -0.54014,-0.0639 -0.78268,-0.0882 -0.24253,-0.0242 -0.44097,-0.22931 -0.44097,-0.45568 0,-0.22636 -0.11941,-0.53098 -0.26535,-0.67693 -0.46701,-0.467 0.86849,-1.55733 1.90753,-1.55733 0.67384,0 1.00365,-0.18073 1.00365,-0.54998 0,-0.3025 0.15875,-0.45188 0.35278,-0.33196 0.19403,0.11992 0.35278,0.0499 0.35278,-0.15557 0,-0.20548 -0.17819,-0.3736 -0.39597,-0.3736 -0.28725,0 -0.28408,-0.13483 0.0115,-0.49104 0.44266,-0.53337 1.91276,-1.04236 1.61389,-0.55877 -0.10047,0.16253 -0.0212,0.39522 0.17589,0.51709 0.1972,0.12187 0.35853,-0.0408 0.35853,-0.36143 0,-0.32065 -0.3175,-0.66604 -0.70556,-0.76752 -1.40331,-0.36697 -0.64286,-2.05497 2.08591,-4.63027 0.85619,-0.80804 1.77687,-1.46917 2.04597,-1.46917 0.2691,0 0.96135,-0.24412 1.53836,-0.5425 l 1.04908,-0.5425 -0.005,196.51263 C 227.8026,236.8613 120.40978,237.7372 0,237.7478 Z m 67.724359,-68.58899 c -0.48478,-0.26829 -0.95643,-0.41279 -1.04812,-0.3211 -0.23733,0.23734 0.77024,0.82445 1.40037,0.81599 0.30678,-0.004 0.15875,-0.21209 -0.35225,-0.49489 z M 318.66255,90.13858 c 0.57521,-0.43646 0.55433,-0.47385 -0.26458,-0.47385 -0.51917,0 -0.88906,0.20181 -0.88906,0.48507 0,0.60401 0.34729,0.60063 1.15364,-0.0112 z m 0.52222,-2.06135 c -0.22227,-0.66752 -1.32309,-0.76242 -1.32309,-0.11406 0,0.32725 0.30163,0.55503 0.73496,0.55503 0.43108,0 0.67425,-0.18232 0.58813,-0.44097 z m 1.34739,-11.8163 c 1.17734,0.1327 1.56286,0.0563 1.56286,-0.30968 0,-0.2672 0.23812,-0.48583 0.52916,-0.48583 0.61468,0 0.70449,-0.55555 0.14566,-0.90094 -0.21093,-0.13036 -0.30904,-0.52182 -0.21801,-0.8699 0.14548,-0.55632 0.0425,-0.59 -0.85121,-0.27845 -0.55919,0.19493 -1.01671,0.49045 -1.01671,0.65671 0,0.16625 -0.55767,0.4069 -1.23927,0.53476 -0.79008,0.14823 -1.49863,0.59674 -1.95485,1.23744 l -0.71558,1.00495 1.09754,-0.38261 c 0.60366,-0.21043 1.80084,-0.30333 2.66041,-0.20645 z M 28.684679,75.10715 c -0.10227,-0.39108 -0.33584,-0.80369 -0.51903,-0.91691 -0.51178,-0.3163 -2.80399,0.20779 -2.56935,0.58745 0.11386,0.18423 0.44514,0.33495 0.73618,0.33495 0.29104,0 0.4228,-0.17209 0.2928,-0.38244 -0.15047,-0.24347 0.0663,-0.33962 0.59655,-0.26458 0.45809,0.0648 0.85274,0.3163 0.877,0.55883 0.0715,0.7153 0.1162,0.79375 0.45204,0.79375 0.17586,0 0.23608,-0.31997 0.13381,-0.71105 z m -2.65826,-1.49381 c -0.0807,-0.24254 -0.44611,-0.49897 -0.81192,-0.56986 -0.57541,-0.1115 -0.60132,-0.052 -0.19215,0.44098 0.55958,0.67425 1.21361,0.7582 1.00407,0.12888 z m 28.86462,-1.63367 c 0,-0.4694 -0.23584,-0.65002 -0.8061,-0.61736 -0.44336,0.0254 -0.80622,0.0745 -0.80635,0.10916 -7e-4,0.18435 1.1457,1.17173 1.36046,1.17173 0.1386,0 0.25199,-0.29859 0.25199,-0.66353 z m -26.811,-3.13292 c -0.1174,-0.1174 -0.40131,-0.0256 -0.63091,0.204 -0.2296,0.2296 -0.74289,0.43835 -1.14065,0.46389 -0.39776,0.0255 -0.16757,0.1446 0.51153,0.26458 0.87565,0.15471 1.26944,0.0819 1.3541,-0.25044 0.0657,-0.25772 0.0233,-0.56464 -0.0941,-0.68203 z m 22.0233,-1.84795 c 0,-0.19403 -0.22875,-0.35278 -0.50835,-0.35278 -0.27959,0 -0.60646,0.15875 -0.72637,0.35278 -0.11992,0.19402 0.10884,0.35277 0.50834,0.35277 0.39951,0 0.72638,-0.15875 0.72638,-0.35277 z m 1.88133,-2.38024 c -0.22979,-0.24198 -0.66771,-0.34406 -0.97317,-0.22684 -0.30546,0.11722 -0.55538,0.0374 -0.55538,-0.1774 0,-0.21479 0.18521,-0.39052 0.41157,-0.39052 0.22637,0 0.30958,-0.102 0.18492,-0.22666 -0.12467,-0.12467 -0.44851,-0.0425 -0.71964,0.18247 -0.27114,0.22503 -0.79091,0.3186 -1.15505,0.20796 -0.36414,-0.11065 -0.10645,0.0898 0.57264,0.44549 0.8603,0.45056 1.2266,0.88073 1.20793,1.41851 l -0.0268,0.77184 0.73538,-0.78244 c 0.57103,-0.60758 0.64201,-0.88078 0.31759,-1.22241 z M 319.1098,64.90381 c -0.11254,-0.1821 0.0765,-0.50892 0.42016,-0.72627 0.49647,-0.31401 0.27434,-0.36288 -1.08159,-0.23794 -0.93851,0.0865 -1.88605,0.33689 -2.10565,0.55649 -0.29717,0.29717 -0.10891,0.3412 0.73624,0.17217 0.7405,-0.1481 1.1355,-0.089 1.1355,0.16977 0,0.21828 0.2475,0.39688 0.54999,0.39688 0.30249,0 0.4579,-0.149 0.34535,-0.3311 z M 27.918419,59.16276 c 0.33405,-0.62417 0.28669,-0.67086 -0.45077,-0.44449 -0.45322,0.13912 -1.02998,0.41794 -1.2817,0.61961 -0.35261,0.28248 -0.35996,0.42704 -0.032,0.62974 0.586,0.36216 1.31878,0.0279 1.76446,-0.80486 z m 26.06548,-3.12044 c 0,-0.61371 -0.58224,-0.61093 -0.96665,0.005 -0.34474,0.55201 -0.30436,0.61858 0.28217,0.4652 0.37646,-0.0985 0.68448,-0.30987 0.68448,-0.46982 z m -22.04861,-1.39079 c 0.11991,-0.19402 0.77751,-0.35277 1.46132,-0.35277 0.84243,0 1.19315,-0.14219 1.08774,-0.44098 -0.17093,-0.48453 -0.69623,-0.51109 -1.98507,-0.10035 -0.65153,0.20764 -0.80331,0.15583 -0.65741,-0.2244 0.1454,-0.37889 -0.0893,-0.46178 -1.00497,-0.35489 -0.65707,0.0767 -1.19467,0.28086 -1.19467,0.45366 0,0.1728 -0.35719,0.32976 -0.79375,0.34881 -0.48576,0.0212 -0.17778,0.21308 0.79375,0.49453 2.04459,0.59232 2.03639,0.59169 2.29306,0.17639 z M 351.01738,52.27028 c 0.003,-0.24253 -0.14837,-0.44097 -0.33631,-0.44097 -0.18793,0 -0.25032,0.23813 -0.13864,0.52917 0.11169,0.29104 0.018,0.52916 -0.20828,0.52916 -0.22624,0 -0.30275,0.1757 -0.17004,0.39044 0.16822,0.27218 0.33317,0.24547 0.54459,-0.0882 0.1668,-0.26325 0.30571,-0.67707 0.30868,-0.9196 z"
       id="foreground" />
    </svg>